<svg version="1.1" xmlns="http://www.w3.org/2000/svg" xmlns:xlink="http://www.w3.org/1999/xlink" width="715.94667" height="746.68669" viewBox="0,0,715.94667,746.68669"><defs><radialGradient cx="238.59505" cy="234.83856" r="357.89" gradientUnits="userSpaceOnUse" id="color-1"><stop offset="0" stop-color="#a6906f"/><stop offset="1" stop-color="#796856"/></radialGradient><radialGradient cx="237.59506" cy="151.08856" r="357.89" gradientUnits="userSpaceOnUse" id="color-2"><stop offset="0" stop-color="#a99271"/><stop offset="1" stop-color="#81735a"/></radialGradient><radialGradient cx="238.42838" cy="234.83856" r="357.89" gradientUnits="userSpaceOnUse" id="color-3"><stop offset="0" stop-color="#c3b19d"/><stop offset="1" stop-color="#796856"/></radialGradient><radialGradient cx="247.69013" cy="828.61044" r="217.6" gradientUnits="userSpaceOnUse" id="color-4"><stop offset="0" stop-color="#886f58"/><stop offset="1" stop-color="#5a493a"/></radialGradient><radialGradient cx="237.59506" cy="151.08856" r="357.89" gradientUnits="userSpaceOnUse" id="color-5"><stop offset="0" stop-color="#c3b19d"/><stop offset="1" stop-color="#796856"/></radialGradient><radialGradient cx="237.59506" cy="158.58856" r="357.89" gradientUnits="userSpaceOnUse" id="color-6"><stop offset="0" stop-color="#998b7c"/><stop offset="1" stop-color="#796856"/></radialGradient><radialGradient cx="238.01172" cy="159.67188" r="332.99" gradientUnits="userSpaceOnUse" id="color-7"><stop offset="0" stop-color="#f2d8a9"/><stop offset="1" stop-color="#a48242"/></radialGradient><radialGradient cx="238.01172" cy="152.17188" r="332.99" gradientUnits="userSpaceOnUse" id="color-8"><stop offset="0" stop-color="#f2d8a9"/><stop offset="1" stop-color="#a48242"/></radialGradient><radialGradient cx="238.42838" cy="241.33856" r="357.89" gradientUnits="userSpaceOnUse" id="color-9"><stop offset="0" stop-color="#998b7c"/><stop offset="1" stop-color="#6c5d4d"/></radialGradient><radialGradient cx="238.42838" cy="247.83856" r="357.89" gradientUnits="userSpaceOnUse" id="color-10"><stop offset="0" stop-color="#e2caa3"/><stop offset="1" stop-color="#ba9f72"/></radialGradient><radialGradient cx="240" cy="112.5" r="23.15334" gradientUnits="userSpaceOnUse" id="color-11"><stop offset="0" stop-color="#ffe4ae"/><stop offset="1" stop-color="#b48c3d"/></radialGradient><linearGradient x1="240" y1="89.34666" x2="240" y2="135.65334" gradientUnits="userSpaceOnUse" id="color-12"><stop offset="0" stop-color="#7b6749"/><stop offset="1" stop-color="#b09976"/></linearGradient><radialGradient cx="239.90001" cy="112.39999" r="16.32" gradientUnits="userSpaceOnUse" id="color-13"><stop offset="0" stop-color="#ffe4ae"/><stop offset="1" stop-color="#b48c3d"/></radialGradient><radialGradient cx="239.99999" cy="112.49999" r="23.15334" gradientUnits="userSpaceOnUse" id="color-14"><stop offset="0" stop-color="#ffe4ae"/><stop offset="1" stop-color="#b48c3d"/></radialGradient></defs><g transform="translate(117.89,-86.84666)"><g data-paper-data="{&quot;isPaintingLayer&quot;:true}" fill-rule="nonzero" stroke-miterlimit="10" stroke-dasharray="" stroke-dashoffset="0" style="mix-blend-mode: normal"><path d="M-117.72333,234.46h715.78" fill="#000000" stroke="url(#color-1)" stroke-width="33.5" stroke-linecap="butt" stroke-linejoin="miter"/><path d="M-82.25369,228.06535c217.658,-109.06799 435.316,-107.63522 652.97399,4.29833" fill="none" stroke="url(#color-2)" stroke-width="26" stroke-linecap="round" stroke-linejoin="round"/><path d="M-117.89,234.46h715.78" fill="#000000" stroke="url(#color-3)" stroke-width="29" stroke-linecap="butt" stroke-linejoin="miter"/><path d="M27.40006,813.13335h435.2v20.4h-435.2z" fill="url(#color-4)" stroke="none" stroke-width="1" stroke-linecap="butt" stroke-linejoin="miter"/><path d="M-83.25369,228.26535c217.658,-109.06799 436.316,-107.83522 653.97399,4.09833" fill="none" stroke="url(#color-5)" stroke-width="22.5" stroke-linecap="round" stroke-linejoin="round"/><path d="M-82.25369,235.56535c217.658,-109.06799 435.316,-107.63522 652.97399,4.29833" fill="none" stroke="url(#color-6)" stroke-width="7.5" stroke-linecap="round" stroke-linejoin="round"/><path d="M-92.99,243.8c221.99333,-112.03333 443.98667,-112.03333 665.98,0" fill="none" stroke="url(#color-7)" stroke-width="3.89" stroke-linecap="round" stroke-linejoin="round" opacity="0.7"/><path d="M-92.99,236.3c221.99333,-112.03333 443.98667,-112.03333 665.98,0" fill="none" stroke="url(#color-8)" stroke-width="3.89" stroke-linecap="round" stroke-linejoin="round" opacity="0.7"/><path d="M597.89,240.96h-715.78" fill="#000000" stroke="url(#color-9)" stroke-width="10" stroke-linecap="butt" stroke-linejoin="miter"/><path d="M-117.89,247.46h715.78" fill="#000000" stroke="url(#color-10)" stroke-width="5" stroke-linecap="butt" stroke-linejoin="miter"/><g><path d="M240,89.34666c0,15.43556 7.71778,23.15334 23.15334,23.15334c-15.43556,0 -23.15334,7.71778 -23.15334,23.15334c0,-15.43556 -7.71778,-23.15334 -23.15334,-23.15334c15.43556,0 23.15334,-7.71778 23.15334,-23.15334z" fill="url(#color-11)" stroke="url(#color-12)" stroke-width="5" stroke-linecap="round" stroke-linejoin="round"/><path d="M239.90001,96.08c0,10.88 5.44,16.32 16.32,16.32c-10.88,0 -16.32,5.44 -16.32,16.32c0,-10.88 -5.44,-16.32 -16.32,-16.32c10.88,0 16.32,-5.44 16.32,-16.32z" fill="url(#color-13)" stroke="none" stroke-width="1" stroke-linecap="butt" stroke-linejoin="miter"/><path d="M239.99999,89.34666c0,15.43556 7.71777,23.15334 23.15334,23.15334c-15.43556,0 -23.15333,7.71777 -23.15333,23.15334c0,-15.43556 -7.71777,-23.15333 -23.15333,-23.15333c15.43556,0 23.15334,-7.71778 23.15334,-23.15333z" fill="url(#color-14)" stroke="#9f8661" stroke-width="0" stroke-linecap="round" stroke-linejoin="round"/></g></g></g></svg>