<svg xmlns="http://www.w3.org/2000/svg" viewBox="-70 -70 440 540" width="440" height="540"><style>
 .tw{animation:twinkle 3s ease-in-out infinite}@keyframes twinkle{50%{opacity:.25}}
 .drift{animation:dy 9s ease-in-out infinite}.drift.slow{animation-duration:14s}.float{animation:dy 5s ease-in-out infinite}@keyframes dy{50%{transform:translateY(-14px)}}
 .flick{animation:flick 2.6s ease-in-out infinite}@keyframes flick{30%{opacity:.78}60%{opacity:1}80%{opacity:.85}}
 .fx-rise>*{animation:rise 2.4s ease-out infinite}.fx-rise>*:nth-child(2){animation-delay:.8s}.fx-rise>*:nth-child(3){animation-delay:1.6s}@keyframes rise{0%{transform:translateY(14px);opacity:0}25%{opacity:1}100%{transform:translateY(-34px);opacity:0}}
 .fx-drip{animation:drip 1.8s ease-in infinite}@keyframes drip{0%{transform:translateY(-6px);opacity:0}20%{opacity:1}100%{transform:translateY(18px);opacity:0}}
 .fx-pulse{animation:pulse .9s ease-in-out infinite;transform-box:fill-box;transform-origin:center}@keyframes pulse{50%{transform:scale(1.18)}}
 .fx-twinkle>*{animation:twinkle 1.6s ease-in-out infinite}.fx-twinkle>*:nth-child(2){animation-delay:.5s}.fx-twinkle>*:nth-child(3){animation-delay:1s}
 </style><g id="guide-book-position" opacity=".25"><rect x="0" y="0" width="300" height="400" rx="6" fill="none" stroke="#888" stroke-width="2" stroke-dasharray="8 6"/></g><g class="fx-twinkle"><path d="M330 6Q330 30 354 30Q330 30 330 54Q330 30 306 30Q330 30 330 6Z" fill="#ffe28a" stroke="#2b2032" stroke-width="2.5"/><path d="M-20 62Q-20 80 -2 80Q-20 80 -20 98Q-20 80 -38 80Q-20 80 -20 62Z" fill="#bfe7ff" stroke="#2b2032" stroke-width="2"/><path d="M350 136Q350 150 364 150Q350 150 350 164Q350 150 336 150Q350 150 350 136Z" fill="#ffe28a" stroke="#2b2032" stroke-width="2"/></g><text x="310" y="230" font-size="52" font-weight="700" font-family="Zen Maru Gothic, sans-serif" text-anchor="middle" fill="#ffb15e" stroke="#2b2032" stroke-width="3" paint-order="stroke">!!</text><path d="M-50 260 h34 M-58 300 h42 M-50 340 h34" stroke="#bdbbdc" stroke-width="6" stroke-linecap="round" opacity=".8"/></svg>