<svg version="1.1" xmlns="http://www.w3.org/2000/svg" xmlns:xlink="http://www.w3.org/1999/xlink" width="423.16517" height="416.92369" viewBox="0,0,423.16517,416.92369"><g transform="translate(-40.97813,-162.15732)"><g data-paper-data="{&quot;isPaintingLayer&quot;:true}" fill="#163601" fill-rule="nonzero" stroke="#001b03" stroke-miterlimit="10" stroke-dasharray="" stroke-dashoffset="0" style="mix-blend-mode: normal"><g data-paper-data="{&quot;index&quot;:null}" stroke-width="0"><path d="M464.14329,300.81203c-6.94888,4.29721 -13.55353,8.85573 -19.88443,13.57829c-1.53451,1.14467 7.03566,0.18899 4.48298,2.27414c-1.42321,1.16255 -19.6596,9.71217 -21.05823,10.88458c-2.36969,1.98642 7.79261,-0.33183 4.75978,2.39435c-1.07392,0.96532 -23.1519,13.70268 -24.21563,14.66608c-0.94085,0.8521 8.97878,-0.38441 7.41831,1.04086c-3.11287,2.84319 -21.13073,11.46523 -24.19262,14.23677c-0.85004,0.76943 6.70514,0.65693 5.59069,1.64774c-5.23455,4.65386 -21.92412,12.78296 -27.1678,17.0041c-0.93484,0.75254 9.62474,-1.71737 6.01719,0.77536c-3.38174,2.33669 -26.33934,13.91027 -29.81583,15.94893c-0.93153,0.54626 5.59263,0.65437 4.32296,1.3076c-7.63174,3.92647 -26.48571,9.36398 -34.90447,11.43265c-0.74909,0.18406 4.66222,1.77363 3.66955,2.00099c-20.24992,4.63829 -44.99972,1.3005 -67.37528,-5.85545c12.3595,-7.8733 23.67652,-16.17346 34.26116,-24.53645c9.07197,-7.16781 17.60596,-14.3818 25.79723,-21.41278c7.88527,-6.76833 15.45297,-13.36706 22.87728,-19.59177c8.58559,-7.19835 16.97943,-13.89651 25.45093,-19.77833c3.22481,-2.23901 21.11524,-15.9397 26.56214,-17.70074c4.90449,-1.58566 -7.98484,6.24461 -3.4498,4.10275c2.64891,-1.25105 21.33256,-9.97063 28.63386,-10.93857c6.15484,-0.81595 -8.84114,3.52078 -2.64786,2.35448c1.7795,-0.33512 20.95144,-4.44381 26.90192,-2.84033c5.22134,1.407 -10.59701,1.00233 -4.82632,1.20664c10.15319,0.35948 21.00588,2.20057 32.7923,5.79812z" stroke-linecap="butt" stroke-linejoin="miter"/><path d="M262.79006,403.44528c64.40345,-15.87436 72.23652,-88.42185 185.55434,-101.13285" stroke-linecap="round" stroke-linejoin="miter"/><path d="M423.40873,323.95177c-10.75914,-8.76264 -30.1255,-7.71424 -30.1255,-7.71424c0,0 0.84841,-11.47581 12.97879,-16.15442" stroke-linecap="round" stroke-linejoin="bevel"/><path d="M402.86022,339.02714c-13.34082,-10.86525 -37.35418,-9.5653 -37.35418,-9.5653c0,0 1.052,-14.22946 16.09308,-20.0307" stroke-linecap="round" stroke-linejoin="bevel"/><path d="M387.81866,356.34413c-17.10166,-12.04635 -46.11565,-8.43322 -46.11565,-8.43322c0,0 3.61633,-14.98391 17.53523,-24.7915" stroke-linecap="round" stroke-linejoin="bevel"/><path d="M366.60648,374.90896c-19.38738,-13.65641 -47.71549,-5.90342 -47.71549,-5.90342c0,0 2.51816,-15.8243 16.92186,-27.87382" stroke-linecap="round" stroke-linejoin="bevel"/><path d="M343.19767,390.34564c-25.68425,-4.99824 -41.64549,-7.52927 -41.64549,-7.52927c0,0 3.11055,-12.95258 11.32188,-21.13677" stroke-linecap="round" stroke-linejoin="bevel"/><path d="M311.45448,404.41327c-24.63131,-1.43794 -34.94206,-5.3143 -34.94206,-5.3143c0,0 2.6737,-9.66057 9.71284,-16.67645" stroke-linecap="round" stroke-linejoin="bevel"/></g><g data-paper-data="{&quot;index&quot;:null}" stroke-width="0"><path d="M393.91677,225.61817c-4.39483,6.9892 -8.3611,14.06247 -12.00602,21.16286c-0.88347,1.72102 6.46836,-2.9569 5.07916,0.07025c-0.77452,1.68776 -13.52109,17.55468 -14.26893,19.24045c-1.26706,2.8562 6.92366,-3.76609 5.38378,0.05626c-0.54527,1.35348 -14.9157,22.7286 -15.45258,24.0758c-0.47486,1.19156 7.97663,-4.34123 7.19437,-2.35404c-1.56047,3.96411 -14.07653,19.79958 -15.62259,23.67601c-0.42921,1.07617 6.37651,-2.38532 5.80579,-0.99069c-2.68062,6.55056 -14.21053,21.34809 -17.09185,27.51005c-0.51368,1.09856 7.97009,-5.83802 5.8049,-1.97196c-2.02966,3.62405 -17.71576,24.33427 -19.96391,27.73002c-0.60239,0.9099 5.36585,-1.89297 4.50418,-0.73566c-5.17932,6.95642 -19.87007,20.27394 -26.58963,25.89449c-0.5979,0.50011 5.01925,-0.46362 4.21958,0.18409c-16.31284,13.213 -40.25554,21.18919 -63.74154,24.64498c7.71445,-12.64005 14.29311,-25.20391 20.17927,-37.49914c5.04496,-10.53808 9.58121,-20.87887 13.88785,-30.90118c4.14575,-9.64792 8.07874,-19.00074 12.04793,-27.9504c4.59003,-10.34953 9.22846,-20.15991 14.30035,-29.26406c1.93069,-3.46564 12.0729,-23.85293 16.2325,-27.87289c3.74538,-3.61965 -4.46897,9.21695 -1.30615,5.25688c1.8474,-2.31307 14.92423,-18.53309 21.11921,-22.65794c5.22223,-3.47715 -6.45715,7.12604 -1.35582,3.31387c1.46575,-1.09535 17.0359,-13.34845 23.14849,-14.53929c5.36359,-1.04492 -9.1703,5.62148 -3.84298,3.24095c9.37309,-4.18841 20.03972,-7.3434 32.33464,-9.31972z" stroke-linecap="butt" stroke-linejoin="miter"/><path d="M256.83987,408.28153c51.3827,-43.04171 26.23243,-112.35597 123.40777,-174.2769" stroke-linecap="round" stroke-linejoin="miter"/><path d="M367.24232,264.72829c-13.6594,-3.16738 -30.76671,6.39519 -30.76671,6.39519c0,0 -4.33284,-10.79067 4.59422,-20.42991" stroke-linecap="round" stroke-linejoin="bevel"/><path d="M355.29937,287.54492c-16.937,-3.92741 -38.14927,7.92973 -38.14927,7.92973c0,0 -5.37251,-13.37993 5.6966,-25.33211" stroke-linecap="round" stroke-linejoin="bevel"/><path d="M349.35029,309.94698c-20.87484,-3.32691 -45.59625,12.85278 -45.59625,12.85278c0,0 -3.38103,-15.20475 4.88837,-30.29341" stroke-linecap="round" stroke-linejoin="bevel"/><path d="M338.35669,336.22512c-23.66488,-3.77157 -45.92311,15.85975 -45.92311,15.85975c0,0 -4.75122,-15.47904 2.96123,-32.81765" stroke-linecap="round" stroke-linejoin="bevel"/><path d="M323.9789,360.64144c-25.52895,6.88495 -41.13799,11.6854 -41.13799,11.6854c0,0 -2.93676,-13.13657 0.8753,-24.21427" stroke-linecap="round" stroke-linejoin="bevel"/><path d="M301.42953,387.52131c-22.99041,9.64747 -34.07025,10.71463 -34.07025,10.71463c0,0 -1.86937,-9.9551 1.3985,-19.45141" stroke-linecap="round" stroke-linejoin="bevel"/></g><g data-paper-data="{&quot;index&quot;:null}" stroke-width="0"><path d="M213.15437,162.15735c1.87296,9.03279 4.15621,17.80139 6.71927,26.34298c0.62124,2.07034 2.91986,-7.39087 4.14529,-3.87688c0.68323,1.95918 2.7047,24.61017 3.40788,26.54708c1.19142,3.28171 2.65991,-8.39522 4.37981,-4.12407c0.609,1.5124 5.5883,29.85742 6.1992,31.35827c0.54032,1.32747 3.06259,-9.67391 3.97149,-7.46757c1.8131,4.40128 3.99586,26.84843 5.75265,31.16793c0.48772,1.19917 3.28854,-6.85938 3.90891,-5.29414c2.91393,7.35195 5.08714,28.19942 7.53849,35.39381c0.43703,1.28261 1.89817,-10.8744 3.14827,-6.08378c1.17185,4.49075 4.57655,33.31913 5.39559,37.7952c0.21947,1.19937 2.85582,-5.68014 3.05807,-4.0807c1.21573,9.61392 -0.30305,31.7172 -1.36242,41.44799c-0.09426,0.86584 3.68359,-4.26049 3.54112,-3.11952c-2.90619,23.27531 -16.01324,48.24155 -32.25319,69.21328c-3.57547,-16.15495 -8.00671,-31.36895 -12.78768,-45.83029c-4.0977,-12.39463 -8.45234,-24.23638 -12.74527,-35.64382c-4.13258,-10.98129 -8.20798,-21.56013 -11.94201,-31.84229c-4.31809,-11.89044 -8.17966,-23.38414 -11.14519,-34.6447c-1.12888,-4.28651 -8.74868,-28.56142 -8.51163,-35.02054c0.21346,-5.81591 3.5385,10.8845 3.0191,5.24555c-0.30337,-3.2937 -2.33228,-26.48485 -0.5371,-34.60471c1.51329,-6.84486 0.3179,10.74013 1.47437,3.71907c0.33228,-2.01735 3.38366,-23.94435 7.38467,-29.63729c3.51076,-4.99535 -3.03252,11.62947 -0.58533,5.58648c4.30569,-10.63228 10.45353,-21.43399 18.82565,-32.54737z" stroke-linecap="butt" stroke-linejoin="miter"/><path d="M244.20968,415.43607c8.05201,-74.45938 -65.88393,-110.80968 -35.57004,-235.93821" stroke-linecap="round" stroke-linejoin="miter"/><path d="M221.95826,214.31524c-13.45456,8.0272 -19.82766,28.97762 -19.82766,28.97762c0,0 -11.84644,-5.33559 -12.1213,-20.01269" stroke-linecap="round" stroke-linejoin="bevel"/><path d="M230.00905,241.94136c-16.68302,9.95334 -24.58536,35.93087 -24.58536,35.93087c0,0 -14.68902,-6.61588 -15.02983,-24.81477" stroke-linecap="round" stroke-linejoin="bevel"/><path d="M242.56641,264.59173c-19.38961,13.4866 -26.77079,45.66322 -26.77079,45.66322c0,0 -14.49824,-9.62792 -19.52301,-28.18482" stroke-linecap="round" stroke-linejoin="bevel"/><path d="M254.06255,294.27063c-21.98114,15.28915 -24.70535,48.33825 -24.70535,48.33825c0,0 -15.81424,-8.78771 -23.03003,-28.72546" stroke-linecap="round" stroke-linejoin="bevel"/><path d="M261.39112,325.07081c-15.22975,25.3158 -24.08404,41.27035 -24.08404,41.27035c0,0 -12.53875,-8.30621 -18.04735,-20.18066" stroke-linecap="round" stroke-linejoin="bevel"/><path d="M264.04594,364.18353c-11.04575,25.57486 -19.14329,35.01498 -19.14329,35.01498c0,0 -9.2152,-6.57038 -13.93743,-16.74971" stroke-linecap="round" stroke-linejoin="bevel"/></g><g stroke-width="0"><path d="M45.97322,226.16145c12.31569,0.43109 23.17719,2.21952 32.89536,5.18153c5.52345,1.68349 -9.56664,-3.07815 -4.17155,-2.71063c6.14849,0.41885 22.94206,10.53915 24.51585,11.43477c5.47732,3.11704 -7.29313,-5.86084 -1.73822,-3.08761c6.58963,3.2898 21.42194,17.61155 23.52,19.65605c3.59195,3.50028 -6.05022,-8.09611 -1.92802,-5.00164c4.5781,3.4367 17.0404,22.21083 19.36176,25.37688c6.09815,8.31713 11.85738,17.38096 17.63528,26.98016c4.99639,8.30082 10.00672,17.00197 15.26221,25.96676c5.45944,9.31268 11.18345,18.90989 17.43122,28.63838c7.28953,11.35065 15.29205,22.88005 24.41921,34.34483c-23.48646,-0.50984 -47.97637,-5.40243 -65.61709,-16.37412c-0.86477,-0.53784 4.76934,-0.28116 4.12083,-0.69884c-7.28838,-4.6941 -23.34912,-15.96757 -29.28906,-22.16254c-0.98822,-1.03063 5.21645,0.98888 4.51321,0.16936c-2.62451,-3.05844 -20.57029,-21.46898 -23.00828,-24.77843c-2.60079,-3.53045 6.58154,2.23931 5.94225,1.22365c-3.58588,-5.69699 -16.72453,-18.81186 -20.16104,-24.91507c-0.73165,-1.29939 6.37626,1.26404 5.82265,0.25999c-1.99411,-3.61665 -16.22853,-17.62964 -18.24755,-21.33061c-1.01212,-1.85529 7.96614,2.54 7.35356,1.42825c-0.6926,-1.25697 -17.42809,-20.48197 -18.1297,-21.74407c-1.98139,-3.5643 6.87458,1.93283 5.27971,-0.71626c-0.94132,-1.56353 -15.40596,-15.57909 -16.37373,-17.1413c-1.7358,-2.80196 6.0577,0.88889 4.97887,-0.6926c-4.45092,-6.52474 -9.21406,-12.98338 -14.3877,-19.30685z" stroke-linecap="butt" stroke-linejoin="miter"/><path d="M60.42537,232.71829c103.0242,48.8724 86.83813,120.02369 142.57813,155.97994" stroke-linecap="round" stroke-linejoin="miter"/><path d="M100.94519,244.29586c9.94944,8.36923 7.01966,19.49715 7.01966,19.49715c0,0 -17.97266,-7.28958 -30.99667,-2.50228" stroke-linecap="round" stroke-linejoin="bevel"/><path d="M121.22735,261.15641c12.33683,10.37743 8.70405,24.17553 8.70405,24.17553c0,0 -22.28526,-9.03874 -38.4344,-3.10271" stroke-linecap="round" stroke-linejoin="bevel"/><path d="M137.92112,281.37264c9.97273,13.80106 8.51953,29.14654 8.51953,29.14654c0,0 -26.26178,-12.85243 -46.35143,-7.02258" stroke-linecap="round" stroke-linejoin="bevel"/><path d="M154.2153,306.02405c9.70208,16.07879 6.93709,31.86183 6.93709,31.86183c0,0 -24.26685,-16.5442 -47.04159,-9.93516" stroke-linecap="round" stroke-linejoin="bevel"/><path d="M169.22473,332.91496c5.10337,10.40974 3.83249,23.66982 3.83249,23.66982c0,0 -15.91672,-2.79736 -41.8303,-6.42365" stroke-linecap="round" stroke-linejoin="bevel"/><path d="M187.67907,361.19682c4.37484,8.92371 3.76148,18.92867 3.76148,18.92867c0,0 -11.01091,0.31247 -34.77092,-6.33817" stroke-linecap="round" stroke-linejoin="bevel"/></g><g stroke-width="0"><path d="M40.97813,284.86058c12.16418,-1.97351 23.16607,-2.33269 33.27485,-1.31825c5.74545,0.57657 -9.98273,-1.15786 -4.61925,-1.84713c6.11247,-0.78552 24.55426,5.87368 26.27223,6.44595c5.97914,1.99169 -8.29412,-4.32973 -2.30578,-2.69038c7.1038,1.94472 24.43932,13.10668 26.89511,14.70387c4.20439,2.73447 -7.50992,-6.76413 -2.86438,-4.5309c5.15931,2.48022 21.03646,18.47061 23.92949,21.12446c7.59993,6.9716 15.01272,14.74157 22.54798,23.03304c6.51605,7.16997 13.12368,14.7299 20.02308,22.50075c7.16715,8.0724 14.64916,16.3724 22.67047,24.69927c9.3588,9.71531 19.45174,19.46723 30.63525,28.93693c-23.13676,4.06987 -48.11059,4.03601 -67.549,-3.29347c-0.95289,-0.35929 4.62348,-1.2038 3.90609,-1.4873c-8.06244,-3.18622 -26.00979,-11.11914 -33.04162,-16.03992c-1.16987,-0.81865 5.30916,-0.04503 4.45991,-0.71205c-3.16945,-2.48931 -24.35454,-17.0561 -27.38988,-19.82792c-3.23803,-2.95692 6.89147,0.91588 6.06677,0.04403c-4.62585,-4.89038 -20.06526,-15.19807 -24.62364,-20.51596c-0.97049,-1.13218 6.50034,-0.0008 5.76196,-0.87794c-2.65972,-3.15951 -19.34871,-14.13495 -22.04927,-17.37234c-1.35378,-1.62288 8.30812,0.94141 7.49092,-0.0299c-0.92394,-1.09817 -21.08035,-16.69935 -22.01412,-17.80081c-2.63706,-3.11064 7.11928,0.55824 5.03943,-1.72989c-1.22756,-1.35048 -18.14286,-12.28366 -19.39611,-13.6277c-2.24782,-2.41065 6.11488,-0.30679 4.74894,-1.64814c-5.63542,-5.53397 -11.56424,-10.94237 -17.86941,-16.1383z" stroke-linecap="butt" stroke-linejoin="miter"/><path d="M56.42987,288.48001c110.56462,27.89198 108.53244,100.83281 170.2034,125.256" stroke-linecap="round" stroke-linejoin="miter"/><path d="M98.42798,291.95201c11.38775,6.27332 10.67923,17.75861 10.67923,17.75861c0,0 -19.04754,-3.65315 -30.89111,3.57684" stroke-linecap="round" stroke-linejoin="bevel"/><path d="M121.6032,304.54384c14.12026,7.7786 13.24172,22.01983 13.24172,22.01983c0,0 -23.61806,-4.52974 -38.30352,4.43511" stroke-linecap="round" stroke-linejoin="bevel"/><path d="M141.91155,321.12541c12.46752,11.5968 14.02799,26.93174 14.02799,26.93174c0,0 -28.26065,-7.4968 -46.83196,2.13064" stroke-linecap="round" stroke-linejoin="bevel"/><path d="M162.69094,342.13516c12.64523,13.88366 13.00414,29.90304 13.00414,29.90304c0,0 -27.02219,-11.50618 -48.07565,-0.59197" stroke-linecap="round" stroke-linejoin="bevel"/><path d="M182.64589,365.59157c7.03134,9.21777 8.36489,22.47169 8.36489,22.47169c0,0 -16.15682,0.35317 -42.2807,1.83841" stroke-linecap="round" stroke-linejoin="bevel"/><path d="M206.25056,389.74206c6.02759,7.9019 7.3727,17.83498 7.3727,17.83498c0,0 -10.73965,2.44898 -35.33962,0.54865" stroke-linecap="round" stroke-linejoin="bevel"/></g><g stroke-width="0"><path d="M73.72294,337.95432c8.90065,-2.25941 17.04394,-3.24457 24.614,-3.15176c4.30253,0.05275 -7.48586,-0.2075 -3.54953,-1.06944c4.48602,-0.9823 18.61038,2.7564 19.92302,3.069c4.56843,1.08794 -6.43955,-2.67229 -1.88731,-1.84649c5.4002,0.97962 18.99746,8.13301 20.92471,9.15822c3.29953,1.75522 -6.01643,-4.53058 -2.42216,-3.17624c3.99177,1.50412 16.82181,12.33693 19.14265,14.11795c6.09679,4.67869 12.10681,9.96225 18.24179,15.62492c5.30517,4.89674 10.70381,10.07696 16.33279,15.3947c5.84743,5.52409 11.94344,11.19657 18.44154,16.85377c7.5816,6.6005 15.71055,13.18023 24.63061,19.47923c-16.90873,4.53216 -35.44915,6.1381 -50.35709,1.96693c-0.7308,-0.20447 3.35341,-1.19555 2.80237,-1.35915c-6.19289,-1.83858 -20.03341,-6.55507 -25.57456,-9.74854c-0.92186,-0.53128 3.93808,-0.38018 3.26411,-0.81984c-2.51528,-1.64083 -19.19246,-11.07021 -21.62664,-12.92951c-2.59672,-1.98345 5.17539,0.22977 4.50627,-0.36355c-3.75319,-3.32803 -15.88715,-9.97113 -19.61818,-13.62091c-0.79435,-0.77704 4.82519,-0.42514 4.21979,-1.02803c-2.18067,-2.17161 -15.28582,-9.22877 -17.5019,-11.45552c-1.11091,-1.11626 6.22864,0.1562 5.55859,-0.51143c-0.75757,-0.75484 -16.7387,-11.01924 -17.50378,-11.77588c-2.16066,-2.13682 5.32114,-0.05058 3.62782,-1.61324c-0.99943,-0.9223 -14.2698,-7.93329 -15.28787,-8.84913c-1.82602,-1.64264 4.51907,-0.6271 3.41752,-1.53358c-4.54464,-3.73984 -9.29885,-7.36731 -14.31857,-10.81248z" stroke-linecap="butt" stroke-linejoin="miter"/><path d="M85.42923,339.63187c83.89437,13.48329 87.1497,67.76038 134.52349,81.86206" stroke-linecap="round" stroke-linejoin="miter"/><path d="M116.83142,339.46621c8.86291,3.91297 9.08708,12.48485 9.08708,12.48485c0,0 -14.37769,-1.46774 -22.69704,4.67263" stroke-linecap="round" stroke-linejoin="bevel"/><path d="M134.85689,347.2996c10.98957,4.85189 11.26754,15.48061 11.26754,15.48061c0,0 -17.82766,-1.81994 -28.14325,5.79385" stroke-linecap="round" stroke-linejoin="bevel"/><path d="M151.01484,358.28183c10.0121,7.7941 12.17199,19.07539 12.17199,19.07539c0,0 -21.46766,-3.71918 -34.62446,4.64023" stroke-linecap="round" stroke-linejoin="bevel"/><path d="M167.81167,372.52036c10.29337,9.48004 11.60603,21.34787 11.60603,21.34787c0,0 -20.81019,-6.77625 -35.72547,2.70044" stroke-linecap="round" stroke-linejoin="bevel"/><path d="M184.15629,388.62891c5.82143,6.38318 7.67695,16.13454 7.67695,16.13454c0,0 -11.97022,1.31738 -31.26512,4.12606" stroke-linecap="round" stroke-linejoin="bevel"/><path d="M203.25546,405.0143c4.9904,5.47196 6.63762,12.75748 6.63762,12.75748c0,0 -7.81216,2.51931 -26.19695,2.71533" stroke-linecap="round" stroke-linejoin="bevel"/></g><g stroke-width="0"><path d="M138.03283,225.83378c11.7933,3.57497 21.83294,8.08895 30.46655,13.44407c4.90702,3.04366 -8.45736,-5.42852 -3.33693,-3.68975c5.83546,1.98159 19.47216,16.07007 20.76364,17.33932c4.49481,4.41743 -5.54626,-7.53512 -0.88829,-3.43011c5.52561,4.86965 16.18919,22.51612 17.69279,25.03029c2.57421,4.30437 -3.77169,-9.37691 -0.58089,-5.32881c3.54369,4.4958 10.77471,25.83798 12.20653,29.49345c3.76134,9.60283 7.00363,19.84049 10.12665,30.60038c2.7006,9.30453 5.31203,18.99957 8.0928,29.01231c2.8887,10.4013 5.96013,21.14546 9.50416,32.15082c4.13495,12.84043 8.91322,26.03647 14.79508,39.45846c-22.5703,-6.51576 -44.98657,-17.52502 -59.22375,-32.65366c-0.69792,-0.74162 4.68195,0.95131 4.16223,0.3813c-5.84087,-6.40618 -18.47351,-21.42134 -22.62616,-28.93241c-0.69087,-1.24959 4.78842,2.29354 4.31886,1.32109c-1.75243,-3.6292 -14.37682,-26.02616 -15.88459,-29.85015c-1.60845,-4.07934 5.78719,3.85222 5.42974,2.70658c-2.005,-6.42606 -11.34106,-22.47167 -13.09752,-29.25207c-0.37396,-1.44356 5.83887,2.85692 5.56127,1.74448c-0.99995,-4.00708 -11.16483,-21.2018 -12.16724,-25.29677c-0.50251,-2.0528 7.04838,4.49793 6.74139,3.26626c-0.34709,-1.39255 -11.59281,-24.26636 -11.94729,-25.66618c-1.00108,-3.95322 6.14903,3.63114 5.28684,0.66165c-0.50888,-1.75264 -10.89561,-19.00888 -11.4304,-20.76703c-0.95921,-3.1534 5.62717,2.41264 4.98998,0.60737c-2.62885,-7.44795 -5.57642,-14.91209 -8.95543,-22.35085z" stroke-linecap="butt" stroke-linejoin="miter"/><path d="M150.32022,235.87752c87.04595,73.658 53.15483,138.27909 97.81008,187.32712" stroke-linecap="round" stroke-linejoin="miter"/><path d="M186.51602,257.45898c7.47049,10.64084 1.785,20.64529 1.785,20.64529c0,0 -15.50227,-11.65479 -29.31841,-10.3675" stroke-linecap="round" stroke-linejoin="bevel"/><path d="M201.79615,278.95696c9.26304,13.19411 2.21331,25.59917 2.21331,25.59917c0,0 -19.22209,-14.45139 -36.35345,-12.85522" stroke-linecap="round" stroke-linejoin="bevel"/><path d="M212.74733,302.77814c6.10004,15.89699 0.76018,30.35663 0.76018,30.35663c0,0 -22.08764,-19.15732 -43.0005,-18.67428" stroke-linecap="round" stroke-linejoin="bevel"/><path d="M222.17492,330.78373c5.25432,18.02914 -1.46567,32.57531 -1.46567,32.57531c0,0 -19.21269,-22.21404 -42.92066,-21.66645" stroke-linecap="round" stroke-linejoin="bevel"/><path d="M229.78641,360.62446c2.26319,11.37036 -2.36565,23.86109 -2.36565,23.86109c0,0 -14.66709,-6.78556 -38.78414,-16.93596" stroke-linecap="round" stroke-linejoin="bevel"/><path d="M240.37091,392.69305c1.94011,9.7472 -1.21845,19.26028 -1.21845,19.26028c0,0 -10.72282,-2.52166 -31.98276,-15.043" stroke-linecap="round" stroke-linejoin="bevel"/></g><g data-paper-data="{&quot;index&quot;:null}" stroke-width="0"><path d="M332.20246,189.52212c-2.83177,8.77953 -5.17632,17.53195 -7.16544,26.22513c-0.48213,2.10708 6.18869,-4.98505 5.51906,-1.32426c-0.37333,2.04104 -9.80072,22.7359 -10.14571,24.76742c-0.5845,3.44201 6.4586,-5.98676 5.84505,-1.42339c-0.21726,1.61587 -9.88435,28.72272 -10.09426,30.32947c-0.18566,1.42114 7.44017,-6.89983 7.14102,-4.53244c-0.59677,4.72254 -9.78324,25.31982 -10.38857,29.94345c-0.16805,1.2836 6.24682,-4.34083 6.01336,-2.67339c-1.09656,7.83196 -9.50142,27.03349 -10.92243,34.50002c-0.25334,1.33113 7.02044,-8.51875 5.74185,-3.73565c-1.19855,4.4837 -12.47355,31.23331 -13.97164,35.53002c-0.40141,1.15131 5.28823,-3.52907 4.67428,-2.03838c-3.69025,8.96033 -15.92568,27.43074 -21.65199,35.36924c-0.50952,0.70635 5.30701,-1.88582 4.61969,-0.96402c-14.02064,18.80446 -37.74664,34.04206 -62.22442,44.2591c4.86829,-15.81349 8.52777,-31.23132 11.51147,-46.16737c2.5573,-12.80149 4.61816,-25.24909 6.51821,-37.28856c1.82906,-11.58972 3.5091,-22.80123 5.33948,-33.5862c2.11668,-12.4719 4.43444,-24.37337 7.41622,-35.62963c1.13506,-4.28487 6.4962,-29.15637 9.89189,-34.65598c3.05755,-4.95194 -2.29786,11.21219 0.03503,6.05224c1.36265,-3.01391 11.0503,-24.18218 16.62098,-30.35651c4.69596,-5.20482 -5.02711,9.4963 -0.55443,3.96205c1.28512,-1.59015 14.76621,-19.15046 21.05658,-22.12515c5.51959,-2.61017 -8.3797,8.61518 -3.26763,4.5688c8.99439,-7.11937 19.67434,-13.47638 32.44236,-19.00605z" stroke-linecap="butt" stroke-linejoin="miter"/><path d="M234.13667,425.1015c43.77032,-60.77166 -2.57231,-128.89089 85.57706,-222.72996" stroke-linecap="round" stroke-linejoin="miter"/><path d="M314.10218,239.22457c-15.66359,0.33629 -31.5509,15.4071 -31.5509,15.4071c0,0 -7.66658,-10.48952 -0.65795,-23.38805" stroke-linecap="round" stroke-linejoin="bevel"/><path d="M307.46097,267.223c-19.4221,0.41697 -39.12163,19.10407 -39.12163,19.10407c0,0 -9.50619,-13.00652 -0.81582,-29.00006" stroke-linecap="round" stroke-linejoin="bevel"/><path d="M307.19561,293.12003c-23.52043,2.15286 -45.8279,26.48788 -45.8279,26.48788c0,0 -7.85294,-15.53149 -3.05883,-34.14931" stroke-linecap="round" stroke-linejoin="bevel"/><path d="M302.5367,324.60483c-26.66406,2.4406 -45.3528,29.83393 -45.3528,29.83393c0,0 -9.4122,-15.45072 -5.84147,-36.35123" stroke-linecap="round" stroke-linejoin="bevel"/><path d="M293.7001,355.0067c-25.74445,14.49336 -41.32237,23.99469 -41.32237,23.99469c0,0 -6.80168,-13.41456 -5.72813,-26.46043" stroke-linecap="round" stroke-linejoin="bevel"/><path d="M276.69455,390.329c-22.2341,16.78472 -33.93708,20.99497 -33.93708,20.99497c0,0 -4.76879,-10.26394 -3.84849,-21.44747" stroke-linecap="round" stroke-linejoin="bevel"/></g><g data-paper-data="{&quot;index&quot;:null}" stroke-width="0"><path d="M269.40642,259.49329c-1.00914,6.11095 -1.69745,12.15556 -2.15561,18.12555c-0.11105,1.44703 3.61482,-3.92442 3.53344,-1.42706c-0.04536,1.39237 -4.2518,16.07009 -4.27928,17.45334c-0.04656,2.34363 3.69464,-4.61637 3.74008,-1.52524c0.01608,1.09456 -3.71321,20.05385 -3.69315,21.14162c0.01774,0.96212 4.25584,-5.32009 4.29212,-3.71836c0.07238,3.19517 -3.98376,17.78416 -3.92689,20.9145c0.01579,0.86904 3.71735,-3.50239 3.72779,-2.37198c0.04907,5.30954 -3.62655,18.89413 -3.8292,23.9932c-0.03613,0.90906 3.81645,-6.35345 3.44209,-3.05041c-0.35093,3.09628 -5.1834,21.97791 -5.75178,24.97976c-0.1523,0.80435 3.16136,-2.86822 2.90162,-1.81741c-1.56127,6.3162 -7.85309,19.79545 -10.86778,25.63518c-0.26824,0.51961 3.3369,-1.77891 2.97198,-1.09859c-7.44412,13.87824 -21.68693,26.35108 -36.92717,35.56468c1.66344,-10.98386 2.56345,-21.58503 3.06252,-31.79922c0.42775,-8.75444 0.56098,-17.22463 0.62791,-25.40784c0.06443,-7.87751 0.06743,-15.48911 0.2126,-22.83237c0.16788,-8.49186 0.52589,-16.62489 1.38886,-24.39536c0.32851,-2.95795 1.42031,-20.00557 3.12941,-23.9945c1.5389,-3.5917 -0.41319,7.67334 0.62387,4.01543c0.60575,-2.13657 4.93803,-17.15447 8.02444,-21.80728c2.60177,-3.92221 -2.3958,6.80477 0.02502,2.68597c0.69556,-1.18345 7.90487,-14.18198 11.78671,-16.78153c3.40619,-2.281 -4.70948,6.55239 -1.71643,3.35813c5.2661,-5.6201 11.72713,-10.90125 19.65682,-15.84022z" stroke-linecap="butt" stroke-linejoin="miter"/><path d="M227.66538,425.65856c23.0343,-44.69829 -14.49891,-85.33307 34.7232,-156.39342" stroke-linecap="round" stroke-linejoin="miter"/><path d="M262.31951,294.29379c-10.36784,1.77773 -19.42201,13.36192 -19.42201,13.36192c0,0 -6.13184,-6.20461 -2.75787,-15.46524" stroke-linecap="round" stroke-linejoin="bevel"/><path d="M260.68799,313.54485c-12.85562,2.20428 -24.08238,16.56814 -24.08238,16.56814c0,0 -7.6032,-7.69344 -3.41963,-19.17615" stroke-linecap="round" stroke-linejoin="bevel"/><path d="M263.08173,330.76777c-15.40479,3.76369 -27.80284,22.13678 -27.80284,22.13678c0,0 -6.75595,-9.53418 -5.42007,-22.37286" stroke-linecap="round" stroke-linejoin="bevel"/><path d="M263.11252,352.13719c-17.46372,4.26672 -27.1553,24.31153 -27.1553,24.31153c0,0 -7.78333,-9.32581 -7.48635,-23.55887" stroke-linecap="round" stroke-linejoin="bevel"/><path d="M260.26168,373.20208c-15.65699,12.17895 -25.05841,20.0341 -25.05841,20.0341c0,0 -5.8478,-8.23278 -6.42956,-17.00226" stroke-linecap="round" stroke-linejoin="bevel"/><path d="M252.47466,398.34499c-13.0986,13.35213 -20.452,17.30927 -20.452,17.30927c0,0 -4.18522,-6.3424 -4.68393,-13.86" stroke-linecap="round" stroke-linejoin="bevel"/></g><g data-paper-data="{&quot;index&quot;:null}" stroke-width="0"><path d="M382.21612,319.36858c-4.51315,4.24188 -8.73113,8.62591 -12.72095,13.09044c-0.96707,1.08213 5.25522,-0.92227 3.67383,1.0123c-0.88169,1.07861 -13.13788,10.18439 -13.99981,11.2666c-1.46038,1.83359 5.73889,-1.4235 3.89761,1.05981c-0.65199,0.87933 -15.12951,13.67636 -15.77423,14.55272c-0.57024,0.77512 6.61212,-1.64173 5.66815,-0.34723c-1.88306,2.58232 -13.96596,11.70892 -15.82198,14.23032c-0.51526,0.69999 5.08036,-0.52472 4.40211,0.37966c-3.18574,4.2479 -14.35631,12.80767 -17.6142,16.73549c-0.58081,0.70025 6.89067,-2.72953 4.58718,-0.33283c-2.1593,2.24667 -17.46605,14.312 -19.74076,16.35157c-0.60951,0.54651 4.25351,-0.35859 3.40896,0.31846c-5.07644,4.06961 -18.26146,10.95674 -24.20317,13.76509c-0.52868,0.24988 3.73138,0.61342 3.02828,0.93226c-14.34276,6.50426 -33.23311,7.76288 -50.93638,5.82645c7.99249,-7.71572 15.14604,-15.59109 21.74606,-23.40253c5.65679,-6.69507 10.90695,-13.34321 15.93015,-19.80361c4.83555,-6.21907 9.46079,-12.26419 14.036,-18.00979c5.29085,-6.64431 10.51481,-12.88806 15.91975,-18.53711c2.05748,-2.1504 13.27863,-15.03058 17.05906,-17.16152c3.40397,-1.91874 -4.98862,5.84505 -1.94312,3.56892c1.77887,-1.32948 14.34163,-10.62908 19.61946,-12.45094c4.44908,-1.53579 -6.03616,3.9509 -1.61143,2.14903c1.27134,-0.51773 14.89327,-6.46574 19.55598,-6.1733c4.09136,0.25661 -7.72095,2.3452 -3.40314,1.62537c7.59693,-1.26648 15.9373,-1.53796 25.2366,-0.64562z" stroke-linecap="butt" stroke-linejoin="miter"/><path d="M248.13588,426.02551c45.4466,-21.52031 40.30807,-76.59772 122.57012,-103.15604" stroke-linecap="round" stroke-linejoin="miter"/><path d="M355.45011,342.71125c-9.3163,-4.88456 -23.54489,-1.18063 -23.54489,-1.18063c0,0 -1.10303,-8.65332 7.20177,-13.96116" stroke-linecap="round" stroke-linejoin="bevel"/><path d="M342.46195,357.01414c-11.55176,-6.05662 -29.19455,-1.46392 -29.19455,-1.46392c0,0 -1.36771,-10.72973 8.92984,-17.31117" stroke-linecap="round" stroke-linejoin="bevel"/><path d="M333.90338,372.15052c-14.52402,-6.366 -35.5323,0.70042 -35.5323,0.70042c0,0 0.42334,-11.67751 9.28212,-21.06572" stroke-linecap="round" stroke-linejoin="bevel"/><path d="M320.94924,389.14591c-16.46522,-7.21684 -36.3387,2.8214 -36.3387,2.8214c0,0 -0.51941,-12.13594 8.3609,-23.26287" stroke-linecap="round" stroke-linejoin="bevel"/><path d="M305.89079,404.14924c-19.83533,0.16624 -32.07496,0.69678 -32.07496,0.69678c0,0 0.35441,-10.09207 5.21834,-17.41221" stroke-linecap="round" stroke-linejoin="bevel"/><path d="M284.43407,419.39433c-18.51538,2.65209 -26.76055,1.32975 -26.76055,1.32975c0,0 0.52712,-7.58051 4.6967,-13.85568" stroke-linecap="round" stroke-linejoin="bevel"/></g><g data-paper-data="{&quot;index&quot;:null}" stroke-width="0"><path d="M391.06169,350.12016c-3.73077,2.653 -7.25966,5.43971 -10.62956,8.3083c-0.81681,0.6953 3.94082,-0.14765 2.58856,1.11018c-0.75394,0.70129 -10.64305,6.13843 -11.38289,6.84435c-1.2535,1.19603 4.34532,-0.46611 2.74766,1.16744c-0.56573,0.57843 -12.4521,8.49549 -13.0122,9.07248c-0.4954,0.51033 5.00668,-0.53823 4.18545,0.3149c-1.6382,1.70186 -11.40252,7.17164 -13.0148,8.8316c-0.44759,0.46084 3.77286,0.12591 3.18538,0.72005c-2.75935,2.79069 -11.79869,7.93702 -14.57873,10.48608c-0.49563,0.45445 5.31988,-1.30681 3.39245,0.2169c-1.80678,1.42833 -14.2269,8.72633 -16.09738,9.99142c-0.50119,0.33899 3.1507,0.16454 2.46428,0.5755c-4.12594,2.47028 -14.47243,6.18952 -19.10533,7.64934c-0.41223,0.12989 2.67076,0.82386 2.12389,0.98674c-11.15581,3.32262 -25.11492,2.3474 -37.88395,-0.84824c6.62738,-4.84739 12.65647,-9.89592 18.27381,-14.95321c4.81455,-4.33454 9.32662,-8.67555 13.65364,-12.90187c4.16538,-4.06845 8.1593,-8.03063 12.0865,-11.77852c4.54148,-4.33411 8.99376,-8.38163 13.51885,-11.97549c1.72255,-1.36806 11.23275,-9.67299 14.215,-10.8538c2.68527,-1.06322 -4.23992,3.77919 -1.78125,2.41828c1.4361,-0.7949 11.56918,-6.34319 15.61688,-7.1473c3.41211,-0.67785 -4.81678,2.28699 -1.39578,1.41185c0.98295,-0.25146 11.55506,-3.23913 14.94003,-2.55679c2.97019,0.59874 -5.88926,0.94201 -2.65521,0.84848c5.69014,-0.16456 11.82474,0.47413 18.54469,2.06135z" stroke-linecap="butt" stroke-linejoin="miter"/><path d="M282.16966,414.75766c35.43986,-11.19507 37.20765,-52.04227 100.11204,-63.2297" stroke-linecap="round" stroke-linejoin="miter"/><path d="M369.11796,364.52548c-6.33151,-4.51227 -17.12253,-3.22877 -17.12253,-3.22877c0,0 0.0612,-6.44728 6.6755,-9.5001" stroke-linecap="round" stroke-linejoin="bevel"/><path d="M358.17099,373.69478c-7.85077,-5.59501 -21.23112,-4.00353 -21.23112,-4.00353c0,0 0.07589,-7.99433 8.27729,-11.77967" stroke-linecap="round" stroke-linejoin="bevel"/><path d="M350.38394,383.9192c-9.99618,-6.12001 -26.08936,-3.05506 -26.08936,-3.05506c0,0 1.48258,-8.50852 8.91226,-14.49362" stroke-linecap="round" stroke-linejoin="bevel"/><path d="M339.19151,395.06354c-11.33222,-6.93798 -26.89283,-1.58291 -26.89283,-1.58291c0,0 0.83828,-8.93887 8.45831,-16.19502" stroke-linecap="round" stroke-linejoin="bevel"/><path d="M326.6582,404.53786c-14.5414,-1.87002 -23.55732,-2.71055 -23.55732,-2.71055c0,0 1.27292,-7.35447 5.56964,-12.22635" stroke-linecap="round" stroke-linejoin="bevel"/><path d="M309.41539,413.54674c-13.82446,0.08282 -19.72931,-1.71341 -19.72931,-1.71341c0,0 1.14719,-5.49801 4.83053,-9.67441" stroke-linecap="round" stroke-linejoin="bevel"/></g><path d="M235.41294,549.70101c47.84995,0 86.64,6.46501 86.64,14.44c0,7.97499 -38.79005,14.44 -86.64,14.44c-47.84995,0 -86.64,-6.46501 -86.64,-14.44c0,-7.97499 38.79005,-14.44 86.64,-14.44z" stroke-width="1" stroke-linecap="butt" stroke-linejoin="miter" opacity="0.3"/><path d="M149.60625,415.63766h173.28l-23.1,144.4c0,0 -18.48971,12.93352 -65.27825,13.41669c-44.90322,0.4637 -61.80175,-13.41669 -61.80175,-13.41669z" stroke-width="0" stroke-linecap="butt" stroke-linejoin="miter"/><path d="M145.75625,403.67096c0,0 39.89534,10.73058 92.33506,10.08333c52.43972,-0.64725 88.64494,-10.08333 88.64494,-10.08333c2.65649,0 4.81,2.15351 4.81,4.81v16.37c0,2.65649 -2.15351,4.81 -4.81,4.81c0,0 -38.66321,12.37961 -88.64497,12.91667c-49.98176,0.53706 -92.33503,-12.91667 -92.33503,-12.91667c-2.65649,0 -4.81,-2.15351 -4.81,-4.81v-16.37c0,-2.65649 2.15351,-4.81 4.81,-4.81z" stroke-width="0" stroke-linecap="butt" stroke-linejoin="miter"/></g></g></svg>